<svg width="24" height="25" viewBox="0 0 24 25" fill="none" xmlns="http://www.w3.org/2000/svg">
<path fill-rule="evenodd" clip-rule="evenodd" d="M10 5.5C10 4.39543 10.8954 3.5 12 3.5C13.1046 3.5 14 4.39543 14 5.5C14 6.60457 13.1046 7.5 12 7.5C10.8954 7.5 10 6.60457 10 5.5ZM10 12.5C10 11.3954 10.8954 10.5 12 10.5C13.1046 10.5 14 11.3954 14 12.5C14 13.6046 13.1046 14.5 12 14.5C10.8954 14.5 10 13.6046 10 12.5ZM12 17.5C10.8954 17.5 10 18.3954 10 19.5C10 20.6046 10.8954 21.5 12 21.5C13.1046 21.5 14 20.6046 14 19.5C14 18.3954 13.1046 17.5 12 17.5Z" fill="black"/>
</svg>
